<svg xmlns="http://www.w3.org/2000/svg" width="100" height="100" aria-label="Nut" enable-background="new" fill-rule="evenodd" stroke="#000" stroke-width="5" stroke-linejoin="round"><defs><linearGradient id="a" x1="61.3" x2="61.3" y1="31.7" y2="194.3" gradientTransform="matrix(.4241 0 0 .25167 3.54 2.48)" gradientUnits="userSpaceOnUse"><stop offset="0%" stop-color="#8da6d8"/><stop offset="100%" stop-color="#2e5cb8"/></linearGradient><filter id="c" color-interpolation-filters="sRGB"><feFlood flood-opacity=".76" flood-color="#000" result="flood"/><feComposite in="flood" in2="SourceGraphic" operator="in" result="composite1"/><feGaussianBlur in="composite1" stdDeviation="3" result="blur"/><feOffset dx="3.4" dy="3.4" result="offset"/><feComposite in="SourceGraphic" in2="offset" result="composite2"/></filter><filter id="b" color-interpolation-filters="sRGB"><feBlend mode="overlay" in2="BackgroundImage"/></filter></defs><path d="M6.57 70.1V55.91l33.63 30.2v14.02z" fill="#24478f" stroke-width="1.62"/><path d="M40.23 86.14L86.1 75.02v14.25l-45.87 11.06z" fill="#2e5cb8" stroke-width="1.62"/><path d="M86.14 75.02v14.25L98.4 48.02V33.83z" fill="#193366" stroke-width="1.62"/><path d="M64.82 3.64l33.6 30.2-12.28 41.18L40.2 86.07 6.6 55.91 18.89 14.7zM63.66 27.6c10.56 5.5 14.2 17.68 8.06 27.22-6.08 9.5-19.67 12.77-30.3 7.26-10.56-5.44-14.19-17.69-8.05-27.19 6.04-9.54 19.6-12.84 30.26-7.33z" fill="#8da6d8" stroke-width="1.62"/><path d="M31.26 50.5a18.08 18.08 0 0 1 1.98-15.61c6.2-9.54 19.8-12.8 30.36-7.26 9.07 4.72 13.07 14.32 10.13 22.93a20.4 20.4 0 0 0-10.1-11.55c-10.63-5.47-24.22-2.2-30.36 7.33a18.94 18.94 0 0 0-1.98 4.22z" fill="url(#a)" stroke-width="1.62"/></svg>
