<?xml version="1.0" encoding="UTF-8"?>
<svg version="1.1" viewBox="0 0 48 48" xmlns="http://www.w3.org/2000/svg" xmlns:cc="http://creativecommons.org/ns#" xmlns:dc="http://purl.org/dc/elements/1.1/" xmlns:rdf="http://www.w3.org/1999/02/22-rdf-syntax-ns#">
<metadata>
<rdf:RDF>
<cc:Work rdf:about="">
<dc:format>image/svg+xml</dc:format>
<dc:type rdf:resource="http://purl.org/dc/dcmitype/StillImage"/>
<dc:title/>
</cc:Work>
</rdf:RDF>
</metadata>
<g transform="translate(0 -1004.4)" display="none">
<rect y="1004.4" width="48" height="48" color="#000000" display="inline" fill="#222"/>
</g>
<g>
<rect x="91.293" y="-7.1796" width="48" height="48" color="#000000" fill="#222"/>
<g transform="translate(91.924 -7.1973)" fill="#00d8ff">
<path transform="matrix(1.4222 0 0 1.4222 30.524 13.245)" d="m9.6429 19.384c0 1.5533-1.2592 2.8125-2.8125 2.8125-1.5533 0-2.8125-1.2592-2.8125-2.8125s1.2592-2.8125 2.8125-2.8125c1.5533 0 2.8125 1.2592 2.8125 2.8125z" color="#000000"/>
<path transform="matrix(1.4222 0 0 1.4222 11.184 -7.9295)" d="m9.6429 19.384c0 1.5533-1.2592 2.8125-2.8125 2.8125-1.5533 0-2.8125-1.2592-2.8125-2.8125s1.2592-2.8125 2.8125-2.8125c1.5533 0 2.8125 1.2592 2.8125 2.8125z" color="#000000"/>
<path transform="matrix(1.4222 0 0 1.4222 12.179 14.381)" d="m9.6429 19.384c0 1.5533-1.2592 2.8125-2.8125 2.8125-1.5533 0-2.8125-1.2592-2.8125-2.8125s1.2592-2.8125 2.8125-2.8125c1.5533 0 2.8125 1.2592 2.8125 2.8125z" color="#000000"/>
<path transform="matrix(1.4222 0 0 1.4222 -2.863 .37917)" d="m9.6429 19.384c0 1.5533-1.2592 2.8125-2.8125 2.8125-1.5533 0-2.8125-1.2592-2.8125-2.8125s1.2592-2.8125 2.8125-2.8125c1.5533 0 2.8125 1.2592 2.8125 2.8125z" color="#000000"/>
<path transform="matrix(1.3933 -.28542 .28542 1.3933 23.827 -15.914)" d="m9.6429 19.384c0 1.5533-1.2592 2.8125-2.8125 2.8125-1.5533 0-2.8125-1.2592-2.8125-2.8125s1.2592-2.8125 2.8125-2.8125c1.5533 0 2.8125 1.2592 2.8125 2.8125z" color="#000000"/>
<path transform="matrix(1.3933 -.28542 .28542 1.3933 12.684 -19.076)" d="m9.6429 19.384c0 1.5533-1.2592 2.8125-2.8125 2.8125-1.5533 0-2.8125-1.2592-2.8125-2.8125s1.2592-2.8125 2.8125-2.8125c1.5533 0 2.8125 1.2592 2.8125 2.8125z" color="#000000"/>
<path transform="matrix(.72273 -1.2249 1.2249 .72273 3.6784 19.799)" d="m9.6429 19.384c0 1.5533-1.2592 2.8125-2.8125 2.8125-1.5533 0-2.8125-1.2592-2.8125-2.8125s1.2592-2.8125 2.8125-2.8125c1.5533 0 2.8125 1.2592 2.8125 2.8125z" color="#000000"/>
<path d="m17.031 21.406 0.46875 0.78125l0.1875-0.125-0.46875-0.78125zm-2.3125 1.375 0.4375 0.78125 1.5625-0.9375l-0.46875-0.78125zm-2.3438 1.375 0.46875 0.78125 1.5625-0.9375-0.46875-0.78125zm-2.3125 1.375 0.46875 0.78125 1.5312-0.9375-0.4375-0.78125z" color="#000000" style="block-progression:tb;text-indent:0;text-transform:none"/>
<path d="m14.357 23.508-0.63292 2.4656 4.5061-4.7565-6.3389 1.658 2.4656 0.63292z" fill-rule="evenodd"/>
<path d="m24.719 11.031 0.78125 0.40625 0.8125-1.625-0.8125-0.40625zm-1.2188 2.4062 0.8125 0.40625 0.78125-1.5938-0.78125-0.40625zm-1.2188 2.4375 0.8125 0.375 0.8125-1.5938-0.8125-0.40625z" color="#000000" style="block-progression:tb;text-indent:0;text-transform:none"/>
<path d="m24.332 12.779 0.80412 2.4152 1.2098-6.4394-4.4291 4.8283 2.4152-0.80412z" fill-rule="evenodd"/>
<path d="m28.219 9.9688 0.28125 1.1875 0.875-0.21875-0.28125-1.1562zm0.5 2.0625 0.40625 1.75 0.875-0.21875-0.40625-1.75zm0.625 2.625 0.40625 1.75 0.875-0.21875-0.40625-1.75zm0.625 2.625 0.40625 1.75 0.875-0.21875-0.40625-1.75zm0.625 2.625 0.40625 1.75 0.875-0.21875-0.40625-1.75z" color="#000000" style="block-progression:tb;text-indent:0;text-transform:none"/>
<path d="m29.49 13.376 2.1674 1.335-3.208-5.713-0.29441 6.5455 1.335-2.1674z" fill-rule="evenodd"/>
<path d="m36.438 14.031 0.84375 0.34375 0.53125-1.3438-0.84375-0.34375zm-1 2.5 0.84375 0.34375 0.65625-1.6562-0.84375-0.34375zm-1 2.5312 0.8125 0.3125 0.6875-1.6562-0.84375-0.34375zm-1 2.5 0.8125 0.34375 0.6875-1.6875-0.84375-0.34375z" color="#000000" style="block-progression:tb;text-indent:0;text-transform:none"/>
<path d="m36.054 16.201 1.0029 2.3397 0.66814-6.5179-4.0107 5.1811 2.3397-1.0029z" fill-rule="evenodd"/>
<path d="m33.781 29.219 0.8125 1.5938 0.8125-0.40625-0.8125-1.625zm1.2188 2.4062 0.84375 1.5938 0.78125-0.40625-0.8125-1.625zm1.25 2.375 0.8125 1.625 0.8125-0.40625-0.8125-1.625zm1.2188 2.4062 0.53125 1.0625 0.8125-0.40625-0.53125-1.0625z" color="#000000" style="block-progression:tb;text-indent:0;text-transform:none"/>
<path d="m36.771 34.049-2.423-0.78058 4.4759 4.785-1.2724-6.4274-0.78058 2.423z" fill-rule="evenodd"/>
<path d="m29.438 29.219 0.75 0.46875 0.40625-0.625-0.75-0.46875zm-1.4375 2.2812l0.75 0.46875 0.96875-1.5312-0.75-0.46875zm-1.4688 2.2812 0.78125 0.46875 0.96875-1.5312-0.78125-0.46875zm-1.4375 2.2812 0.78125 0.46875 0.9375-1.5312l-0.75-0.46875zm-1.4375 2.2812 0.75 0.46875 0.96875-1.5312-0.75-0.46875z" color="#000000" style="block-progression:tb;text-indent:0;text-transform:none"/>
<path d="m28.289 31.861 0.55649 2.484 1.8529-6.2846-4.8934 4.3571 2.484-0.55649z" fill-rule="evenodd"/>
<path d="m34.406 40.719 0.0625 0.90625 1.8125-0.125-0.0625-0.875zm-2.6875 0.15625 0.0625 0.90625 1.8125-0.09375-0.0625-0.90625zm-2.6875 0.1875 0.0625 0.90625 1.7812-0.125-0.03125-0.90625zm-2.6875 0.15625 0.0625 0.90625l1.7812-0.125-0.0625-0.875z" color="#000000" style="block-progression:tb;text-indent:0;text-transform:none"/>
<path d="m29.479 41.48 1.6853-1.9078-6.1767 2.1861 6.3992 1.407-1.9078-1.6853z" fill-rule="evenodd"/>
<path d="m9.4688 31 1.3125 1.2188 0.625-0.65625-1.3125-1.2188zm1.9688 1.8438 1.3438 1.2188 0.59375-0.65625-1.3125-1.2188zm2 1.8438 1.3125 1.2188 0.59375-0.65625-1.3125-1.2188zm1.9688 1.8438 1.3125 1.2188 0.625-0.65625l-1.3438-1.2188zm1.9688 1.8438 1.2812 1.1875 0.625-0.65625l-1.2812-1.2188z" color="#000000" style="block-progression:tb;text-indent:0;text-transform:none"/>
<path d="m16.33 36.771-2.544 0.09107 5.8377 2.975-3.3848-5.6101 0.09107 2.544z" fill-rule="evenodd"/>
</g>
<g transform="translate(321.73 71.418)">
<path transform="matrix(.95067 0 0 .94725 1.7321 .13333)" d="m47.906 25.196c0 13.571-10.962 24.572-24.484 24.572-13.522 0-24.484-11.001-24.484-24.572 0-13.571 10.962-24.572 24.484-24.572 13.522 0 24.484 11.001 24.484 24.572z" color="#000000" fill="none" stroke="#00d8ff" stroke-width="1.0428"/>
<path transform="matrix(.88889 0 0 .88889 16.679 -11.98)" d="m9.6429 19.384c0 1.5533-1.2592 2.8125-2.8125 2.8125-1.5533 0-2.8125-1.2592-2.8125-2.8125s1.2592-2.8125 2.8125-2.8125c1.5533 0 2.8125 1.2592 2.8125 2.8125z" color="#000000" fill="#00d8ff"/>
<path transform="matrix(.88889 0 0 .88889 6.6786 -4.9802)" d="m9.6429 19.384c0 1.5533-1.2592 2.8125-2.8125 2.8125-1.5533 0-2.8125-1.2592-2.8125-2.8125s1.2592-2.8125 2.8125-2.8125c1.5533 0 2.8125 1.2592 2.8125 2.8125z" color="#000000" fill="#00d8ff"/>
<path transform="matrix(1.3333 0 0 1.3333 16.893 -11.72)" d="m9.6429 19.384c0 1.5533-1.2592 2.8125-2.8125 2.8125-1.5533 0-2.8125-1.2592-2.8125-2.8125s1.2592-2.8125 2.8125-2.8125c1.5533 0 2.8125 1.2592 2.8125 2.8125z" color="#000000" fill="#00d8ff"/>
<path transform="matrix(.88889 0 0 .88889 25.714 -7.8559)" d="m9.6429 19.384c0 1.5533-1.2592 2.8125-2.8125 2.8125-1.5533 0-2.8125-1.2592-2.8125-2.8125s1.2592-2.8125 2.8125-2.8125c1.5533 0 2.8125 1.2592 2.8125 2.8125z" color="#000000" fill="#00d8ff"/>
<path transform="matrix(.88889 0 0 .88889 32.737 -5.5549)" d="m9.6429 19.384c0 1.5533-1.2592 2.8125-2.8125 2.8125-1.5533 0-2.8125-1.2592-2.8125-2.8125s1.2592-2.8125 2.8125-2.8125c1.5533 0 2.8125 1.2592 2.8125 2.8125z" color="#000000" fill="#00d8ff"/>
<path transform="matrix(.88889 0 0 .88889 36.693 7.5413)" d="m9.6429 19.384c0 1.5533-1.2592 2.8125-2.8125 2.8125-1.5533 0-2.8125-1.2592-2.8125-2.8125s1.2592-2.8125 2.8125-2.8125c1.5533 0 2.8125 1.2592 2.8125 2.8125z" color="#000000" fill="#00d8ff"/>
<path transform="matrix(.88889 0 0 .88889 34.632 16.179)" d="m9.6429 19.384c0 1.5533-1.2592 2.8125-2.8125 2.8125-1.5533 0-2.8125-1.2592-2.8125-2.8125s1.2592-2.8125 2.8125-2.8125c1.5533 0 2.8125 1.2592 2.8125 2.8125z" color="#000000" fill="#00d8ff"/>
<path transform="matrix(1.3333 0 0 1.3333 7.2893 8.2165)" d="m9.6429 19.384c0 1.5533-1.2592 2.8125-2.8125 2.8125-1.5533 0-2.8125-1.2592-2.8125-2.8125s1.2592-2.8125 2.8125-2.8125c1.5533 0 2.8125 1.2592 2.8125 2.8125z" color="#000000" fill="#00d8ff"/>
<path transform="matrix(.88889 0 0 .88889 1.3949 -.1747)" d="m9.6429 19.384c0 1.5533-1.2592 2.8125-2.8125 2.8125-1.5533 0-2.8125-1.2592-2.8125-2.8125s1.2592-2.8125 2.8125-2.8125c1.5533 0 2.8125 1.2592 2.8125 2.8125z" color="#000000" fill="#00d8ff"/>
<path transform="matrix(.88889 0 0 .88889 9.2141 5.7144)" d="m9.6429 19.384c0 1.5533-1.2592 2.8125-2.8125 2.8125-1.5533 0-2.8125-1.2592-2.8125-2.8125s1.2592-2.8125 2.8125-2.8125c1.5533 0 2.8125 1.2592 2.8125 2.8125z" color="#000000" fill="#00d8ff"/>
<path d="m23.105 16.508-5.8889 4.8474" fill-opacity="0" stroke="#00d8ff" stroke-linecap="square" stroke-width="1px"/>
<path d="m22.295 14.711-12.359 1.9542" fill-opacity="0" stroke="#00d8ff" stroke-linecap="square" stroke-width="1px"/>
<path d="m22.287 13.6-7.0609-0.99918" fill-opacity="0" stroke="#00d8ff" stroke-linecap="square" stroke-width="1px"/>
<path d="m23.61 7.5982 1.1003 3.0045" fill-opacity="0" stroke="#00d8ff" stroke-linecap="square" stroke-width="1px"/>
<path d="m28.898 11.745 0.95489-0.78416" fill-opacity="0" stroke="#00d8ff" stroke-linecap="square" stroke-width="1px"/>
<path d="m29.684 13.42 6.6682-1.2754" fill-opacity="0" stroke="#00d8ff" stroke-linecap="square" stroke-width="1px"/>
<path d="m40.653 23.431-11.487-7.2954" fill-opacity="0" stroke="#00d8ff" stroke-linecap="square" stroke-width="1px"/>
<path d="m39.188 31.421-10.914-14.314" fill-opacity="0" stroke="#00d8ff" stroke-linecap="square" stroke-width="1px"/>
<path d="m24.372 17.504-6.348 13.178" fill-opacity="0" stroke="#00d8ff" stroke-linecap="square" stroke-width="1px"/>
<path transform="matrix(.88889 0 0 .88889 24.776 10.087)" d="m9.6429 19.384c0 1.5533-1.2592 2.8125-2.8125 2.8125-1.5533 0-2.8125-1.2592-2.8125-2.8125s1.2592-2.8125 2.8125-2.8125c1.5533 0 2.8125 1.2592 2.8125 2.8125z" color="#000000" fill="#00d8ff"/>
<path transform="matrix(.88889 0 0 .88889 21.771 17.423)" d="m9.6429 19.384c0 1.5533-1.2592 2.8125-2.8125 2.8125-1.5533 0-2.8125-1.2592-2.8125-2.8125s1.2592-2.8125 2.8125-2.8125c1.5533 0 2.8125 1.2592 2.8125 2.8125z" color="#000000" fill="#00d8ff"/>
<path transform="matrix(.88889 0 0 .88889 25.13 23.876)" d="m9.6429 19.384c0 1.5533-1.2592 2.8125-2.8125 2.8125-1.5533 0-2.8125-1.2592-2.8125-2.8125s1.2592-2.8125 2.8125-2.8125c1.5533 0 2.8125 1.2592 2.8125 2.8125z" color="#000000" fill="#00d8ff"/>
<path transform="matrix(.88889 0 0 .88889 .64609 15.213)" d="m9.6429 19.384c0 1.5533-1.2592 2.8125-2.8125 2.8125-1.5533 0-2.8125-1.2592-2.8125-2.8125s1.2592-2.8125 2.8125-2.8125c1.5533 0 2.8125 1.2592 2.8125 2.8125z" color="#000000" fill="#00d8ff"/>
<path transform="matrix(.88889 0 0 .88889 15.584 24.229)" d="m9.6429 19.384c0 1.5533-1.2592 2.8125-2.8125 2.8125-1.5533 0-2.8125-1.2592-2.8125-2.8125s1.2592-2.8125 2.8125-2.8125c1.5533 0 2.8125 1.2592 2.8125 2.8125z" color="#000000" fill="#00d8ff"/>
<path d="m12.697 33.443-3.5135-0.58738" fill="none" stroke="#00d8ff" stroke-linecap="square" stroke-width="1px"/>
<path d="m19.795 32.475 8.7862-4.1007" fill="none" stroke="#00d8ff" stroke-linecap="square" stroke-width="1px"/>
<path d="m29.985 24.97-2.6913-7.3241" fill="none" stroke="#00d8ff" stroke-linecap="square" stroke-width="1px"/>
<path d="m25.346 34.524-5.2041-0.26899" fill="none" stroke="#00d8ff" stroke-linecap="square" stroke-width="1px"/>
<path d="m18.569 37.118 1.6372 2.3031" fill="none" stroke="#00d8ff" stroke-linecap="square" stroke-width="1px"/>
<path d="m19.783 35.673 9.1596 4.3581" fill="none" stroke="#00d8ff" stroke-linecap="square" stroke-width="1px"/>
</g>
<rect x="91.082" y="69.962" width="48" height="48" color="#000000" fill="#222"/>
<g transform="translate(58.326 -3.2567)">
<path transform="matrix(.88889 0 0 -.88889 40 112.43)" d="m9.6429 19.384c0 1.5533-1.2592 2.8125-2.8125 2.8125-1.5533 0-2.8125-1.2592-2.8125-2.8125s1.2592-2.8125 2.8125-2.8125c1.5533 0 2.8125 1.2592 2.8125 2.8125z" color="#000000" fill="#00d8ff"/>
<path transform="matrix(.88889 0 0 -.88889 38.839 104.19)" d="m9.6429 19.384c0 1.5533-1.2592 2.8125-2.8125 2.8125-1.5533 0-2.8125-1.2592-2.8125-2.8125s1.2592-2.8125 2.8125-2.8125c1.5533 0 2.8125 1.2592 2.8125 2.8125z" color="#000000" fill="#00d8ff"/>
<path transform="matrix(1.2815 0 0 -1.2815 47.109 122.3)" d="m9.6429 19.384c0 1.5533-1.2592 2.8125-2.8125 2.8125-1.5533 0-2.8125-1.2592-2.8125-2.8125s1.2592-2.8125 2.8125-2.8125c1.5533 0 2.8125 1.2592 2.8125 2.8125z" color="#000000" fill="#00d8ff" stroke="#00d8ff" stroke-width=".39975"/>
<path transform="matrix(.88889 0 0 -.88889 34.363 117.68)" d="m9.6429 19.384c0 1.5533-1.2592 2.8125-2.8125 2.8125-1.5533 0-2.8125-1.2592-2.8125-2.8125s1.2592-2.8125 2.8125-2.8125c1.5533 0 2.8125 1.2592 2.8125 2.8125z" color="#000000" fill="#00d8ff"/>
<path transform="matrix(.88889 0 0 -.88889 60.245 116.6)" d="m9.6429 19.384c0 1.5533-1.2592 2.8125-2.8125 2.8125-1.5533 0-2.8125-1.2592-2.8125-2.8125s1.2592-2.8125 2.8125-2.8125c1.5533 0 2.8125 1.2592 2.8125 2.8125z" color="#000000" fill="#00d8ff"/>
<path transform="matrix(.88889 0 0 -.88889 64.08 108.64)" d="m9.6429 19.384c0 1.5533-1.2592 2.8125-2.8125 2.8125-1.5533 0-2.8125-1.2592-2.8125-2.8125s1.2592-2.8125 2.8125-2.8125c1.5533 0 2.8125 1.2592 2.8125 2.8125z" color="#000000" fill="#00d8ff"/>
<path transform="matrix(.88889 0 0 -.88889 46.106 106.28)" d="m9.6429 19.384c0 1.5533-1.2592 2.8125-2.8125 2.8125-1.5533 0-2.8125-1.2592-2.8125-2.8125s1.2592-2.8125 2.8125-2.8125c1.5533 0 2.8125 1.2592 2.8125 2.8125z" color="#000000" fill="#00d8ff"/>
<path transform="matrix(.88889 0 0 -.88889 52.158 100.75)" d="m9.6429 19.384c0 1.5533-1.2592 2.8125-2.8125 2.8125-1.5533 0-2.8125-1.2592-2.8125-2.8125s1.2592-2.8125 2.8125-2.8125c1.5533 0 2.8125 1.2592 2.8125 2.8125z" color="#000000" fill="#00d8ff"/>
<path d="m56.466 93.909 1.3454-7.9271" fill-opacity="0" stroke="#00d8ff" stroke-linecap="square" stroke-width="1px"/>
<path d="m54.416 94.161-1.2345-2.818" fill-opacity="0" stroke="#00d8ff" stroke-linecap="square" stroke-width="1px"/>
<path d="m53.261 94.969-6.5456-6.2751" fill-opacity="0" stroke="#00d8ff" stroke-linecap="square" stroke-width="1px"/>
<path d="m48.508 95.764 3.842 0.8876" fill-opacity="0" stroke="#00d8ff" stroke-linecap="square" stroke-width="1px"/>
<path d="m52.323 98.147-9.4339 1.824" fill-opacity="0" stroke="#00d8ff" stroke-linecap="square" stroke-width="1px"/>
<path d="m59.408 98.111 4.4488 0.813" fill-opacity="0" stroke="#00d8ff" stroke-linecap="square" stroke-width="1px"/>
<path d="m67.849 92.388-8.6668 3.6696" fill-opacity="0" stroke="#00d8ff" stroke-linecap="square" stroke-width="1px"/>
<path transform="matrix(.88889 0 0 -.88889 56.583 106.27)" d="m9.6429 19.384c0 1.5533-1.2592 2.8125-2.8125 2.8125-1.5533 0-2.8125-1.2592-2.8125-2.8125s1.2592-2.8125 2.8125-2.8125c1.5533 0 2.8125 1.2592 2.8125 2.8125z" color="#000000" fill="#00d8ff"/>
<path d="m61.085 90.99-2.9592 3.6681" fill="none" stroke="#00d8ff" stroke-linecap="square" stroke-width="1px"/>
<path transform="matrix(.88889 0 0 -.88889 42.165 119.99)" d="m9.6429 19.384c0 1.5533-1.2592 2.8125-2.8125 2.8125-1.5533 0-2.8125-1.2592-2.8125-2.8125s1.2592-2.8125 2.8125-2.8125c1.5533 0 2.8125 1.2592 2.8125 2.8125z" color="#000000" fill="#00d8ff"/>
<path transform="matrix(.88889 0 0 -.88889 45.915 127.74)" d="m9.6429 19.384c0 1.5533-1.2592 2.8125-2.8125 2.8125-1.5533 0-2.8125-1.2592-2.8125-2.8125s1.2592-2.8125 2.8125-2.8125c1.5533 0 2.8125 1.2592 2.8125 2.8125z" color="#000000" fill="#00d8ff"/>
<path transform="matrix(.88889 0 0 -.88889 52.79 122.99)" d="m9.6429 19.384c0 1.5533-1.2592 2.8125-2.8125 2.8125-1.5533 0-2.8125-1.2592-2.8125-2.8125s1.2592-2.8125 2.8125-2.8125c1.5533 0 2.8125 1.2592 2.8125 2.8125z" color="#000000" fill="#00d8ff"/>
<path transform="matrix(.88889 0 0 -.88889 63.04 123.61)" d="m9.6429 19.384c0 1.5533-1.2592 2.8125-2.8125 2.8125-1.5533 0-2.8125-1.2592-2.8125-2.8125s1.2592-2.8125 2.8125-2.8125c1.5533 0 2.8125 1.2592 2.8125 2.8125z" color="#000000" fill="#00d8ff"/>
<path transform="translate(-58.513 8.1317)" d="m111.41 91.387-2.6107 1.8123" fill="none" stroke="#00d8ff" stroke-linecap="square" stroke-width="1px"/>
<path transform="translate(-58.513 8.1317)" d="m113.35 92.787-2.1365 7.1907" fill="none" stroke="#00d8ff" stroke-linecap="square" stroke-width="1px"/>
<path transform="translate(-58.513 8.1317)" d="m115.6 92.722 0.92291 2.5518" fill="none" stroke="#00d8ff" stroke-linecap="square" stroke-width="1px"/>
<path transform="translate(-58.513 8.1317)" d="m117.37 91.344 8.1852 5.5097" fill="none" stroke="#00d8ff" stroke-linecap="square" stroke-width="1px"/>
</g>
<rect x="23.163" y="100.89" width="6" height="4" color="#000000" fill="#00d8ff"/>
<rect transform="matrix(.61934 -.78512 .78512 .61934 0 0)" x="46.69" y="187.1" width="6" height="4" color="#000000" fill="#00d8ff"/>
<rect transform="matrix(.61934 -.78512 .78512 .61934 0 0)" x="25.388" y="187.1" width="6" height="4" color="#000000" fill="#00d8ff"/>
<rect transform="matrix(.61934 -.78512 .78512 .61934 0 0)" x="36.039" y="187.1" width="6" height="4" color="#000000" fill="#00d8ff"/>
<rect transform="matrix(.61934 -.78512 .78512 .61934 0 0)" x="57.341" y="187.1" width="6" height="4" color="#000000" fill="#00d8ff"/>
<rect transform="matrix(.61934 -.78512 .78512 .61934 0 0)" x="67.991" y="187.1" width="6" height="4" color="#000000" fill="#00d8ff"/>
<path d="m83.625 76.625-2.7422 6.4997-7 0.875l-4.2578-5.6247 2.7422-6.4997 7-0.875z" color="#000000" fill="none" stroke="#00d8ff" stroke-linecap="square" stroke-width=".533"/>
<path transform="translate(-67,5)" d="m109.69 109.62-32.744 16.963-31.062-19.875 1.681-36.838 32.744-16.963 31.062 19.875z" color="#000000" fill="none" stroke="#00d8ff" stroke-linecap="square"/>
<path transform="translate(-2.25,1)" d="m132.38 108.25-21.036 6.1856-15.875-15.125 5.1611-21.311 21.036-6.1857 15.875 15.125z" color="#000000" fill="none" stroke="#00d8ff" stroke-linecap="square"/>
<rect x="81" y="124.75" width="48" height="48" color="#000000" fill="#222"/>
<path transform="matrix(.95403 0 0 -.95403 87.696 164.89)" d="m9.6429 19.384a2.8125 2.8125 0 1 1 -5.625 0 2.8125 2.8125 0 1 1 5.625 0z" color="#000000" fill="#00d8ff"/>
<path transform="matrix(.95403 0 0 -.95403 86.45 156.05)" d="m9.6429 19.384a2.8125 2.8125 0 1 1 -5.625 0 2.8125 2.8125 0 1 1 5.625 0z" color="#000000" fill="#00d8ff"/>
<path transform="matrix(1.3754 0 0 -1.3754 95.326 175.48)" d="m9.6429 19.384a2.8125 2.8125 0 1 1 -5.625 0 2.8125 2.8125 0 1 1 5.625 0z" color="#000000" fill="#00d8ff" stroke="#00d8ff" stroke-width=".39975"/>
<path transform="matrix(.95403 0 0 -.95403 81.645 170.52)" d="m9.6429 19.384a2.8125 2.8125 0 1 1 -5.625 0 2.8125 2.8125 0 1 1 5.625 0z" color="#000000" fill="#00d8ff"/>
<path transform="matrix(.95403 0 0 -.95403 109.42 169.37)" d="m9.6429 19.384a2.8125 2.8125 0 1 1 -5.625 0 2.8125 2.8125 0 1 1 5.625 0z" color="#000000" fill="#00d8ff"/>
<path transform="matrix(.95403 0 0 -.95403 113.54 160.82)" d="m9.6429 19.384a2.8125 2.8125 0 1 1 -5.625 0 2.8125 2.8125 0 1 1 5.625 0z" color="#000000" fill="#00d8ff"/>
<path transform="matrix(.95403 0 0 -.95403 94.25 158.29)" d="m9.6429 19.384a2.8125 2.8125 0 1 1 -5.625 0 2.8125 2.8125 0 1 1 5.625 0z" color="#000000" fill="#00d8ff"/>
<path transform="matrix(.95403 0 0 -.95403 100.74 152.35)" d="m9.6429 19.384a2.8125 2.8125 0 1 1 -5.625 0 2.8125 2.8125 0 1 1 5.625 0z" color="#000000" fill="#00d8ff"/>
<path d="m105.37 145.01 1.444-8.508" fill-opacity="0" stroke="#00d8ff" stroke-linecap="square" stroke-width="1.0733px"/>
<path d="m103.17 145.28-1.325-3.0245" fill-opacity="0" stroke="#00d8ff" stroke-linecap="square" stroke-width="1.0733px"/>
<path d="m101.93 146.15-7.0253-6.735" fill-opacity="0" stroke="#00d8ff" stroke-linecap="square" stroke-width="1.0733px"/>
<path d="m96.827 147 4.1235 0.95265" fill-opacity="0" stroke="#00d8ff" stroke-linecap="square" stroke-width="1.0733px"/>
<path d="m100.92 149.56-10.125 1.9577" fill-opacity="0" stroke="#00d8ff" stroke-linecap="square" stroke-width="1.0733px"/>
<path d="m108.53 149.52 4.7748 0.87259" fill-opacity="0" stroke="#00d8ff" stroke-linecap="square" stroke-width="1.0733px"/>
<path d="m117.59 143.38-9.3019 3.9386" fill-opacity="0" stroke="#00d8ff" stroke-linecap="square" stroke-width="1.0733px"/>
<path transform="matrix(.95403 0 0 -.95403 105.49 158.28)" d="m9.6429 19.384a2.8125 2.8125 0 1 1 -5.625 0 2.8125 2.8125 0 1 1 5.625 0z" color="#000000" fill="#00d8ff"/>
<path d="m110.33 141.88-3.1761 3.937" fill="none" stroke="#00d8ff" stroke-linecap="square" stroke-width="1.0733px"/>
<path transform="matrix(.95403 0 0 -.95403 89.887 174.46)" d="m9.6429 19.384a2.8125 2.8125 0 1 1 -5.625 0 2.8125 2.8125 0 1 1 5.625 0z" color="#000000" fill="#00d8ff"/>
<path transform="matrix(.95403 0 0 -.95403 94.607 181.69)" d="m9.6429 19.384a2.8125 2.8125 0 1 1 -5.625 0 2.8125 2.8125 0 1 1 5.625 0z" color="#000000" fill="#00d8ff"/>
<path transform="matrix(.95403 0 0 -.95403 101.8 175.72)" d="m9.6429 19.384a2.8125 2.8125 0 1 1 -5.625 0 2.8125 2.8125 0 1 1 5.625 0z" color="#000000" fill="#00d8ff"/>
<path transform="matrix(.95403 0 0 -.95403 112.42 176.89)" d="m9.6429 19.384a2.8125 2.8125 0 1 1 -5.625 0 2.8125 2.8125 0 1 1 5.625 0z" color="#000000" fill="#00d8ff"/>
<path d="m101.79 151.34-3.3458 2.8724" fill="none" stroke="#00d8ff" stroke-linecap="square" stroke-width="1.0733px"/>
<path d="m103.78 152.58-2.0062 8.0175" fill="none" stroke="#00d8ff" stroke-linecap="square" stroke-width="1.0733px"/>
<path d="m106.24 152.38 1.0168 2.3765" fill="none" stroke="#00d8ff" stroke-linecap="square" stroke-width="1.0733px"/>
<path d="m107.93 150.98 8.7852 5.9135" fill="none" stroke="#00d8ff" stroke-linecap="square" stroke-width="1.0733px"/>
<path transform="matrix(-.51886 -.93954 .93954 -.51886 77.74 306.51)" d="m132.38 108.25-21.036 6.1856-15.875-15.125 5.1611-21.311 21.036-6.1857 15.875 15.125z" color="#000000" fill="none" stroke="#00d8ff" stroke-linecap="square" stroke-width="1.3976"/>
<rect x="1413.1" y="-128.51" width="420" height="420" color="#000000" fill="#222"/>
<g transform="matrix(1.4034 0 0 1.4034 -119.97 -306.44)">
<path transform="translate(-137.71 48.967)" d="m219.11 166.09c0 9.0309-7.321 16.352-16.352 16.352-9.0309 0-16.352-7.321-16.352-16.352 0-9.0309 7.321-16.352 16.352-16.352 9.0309 0 16.352 7.321 16.352 16.352z" color="#000000" fill="none" stroke="#00d8ff" stroke-linecap="square" stroke-width="1.5"/>
<path transform="matrix(.71553 0 0 -.71553 52.263 226.97)" d="m9.6429 19.384c0 1.5533-1.2592 2.8125-2.8125 2.8125-1.5533 0-2.8125-1.2592-2.8125-2.8125s1.2592-2.8125 2.8125-2.8125c1.5533 0 2.8125 1.2592 2.8125 2.8125z" color="#000000" fill="#00d8ff"/>
<path transform="matrix(.71553 0 0 -.71553 51.328 220.34)" d="m9.6429 19.384c0 1.5533-1.2592 2.8125-2.8125 2.8125-1.5533 0-2.8125-1.2592-2.8125-2.8125s1.2592-2.8125 2.8125-2.8125c1.5533 0 2.8125 1.2592 2.8125 2.8125z" color="#000000" fill="#00d8ff"/>
<path transform="matrix(1.0315 0 0 -1.0315 57.986 234.92)" d="m9.6429 19.384c0 1.5533-1.2592 2.8125-2.8125 2.8125-1.5533 0-2.8125-1.2592-2.8125-2.8125s1.2592-2.8125 2.8125-2.8125c1.5533 0 2.8125 1.2592 2.8125 2.8125z" color="#000000" fill="#00d8ff" stroke="#00d8ff" stroke-width=".39975"/>
<path transform="matrix(.71553 0 0 -.71553 47.725 231.19)" d="m9.6429 19.384c0 1.5533-1.2592 2.8125-2.8125 2.8125-1.5533 0-2.8125-1.2592-2.8125-2.8125s1.2592-2.8125 2.8125-2.8125c1.5533 0 2.8125 1.2592 2.8125 2.8125z" color="#000000" fill="#00d8ff"/>
<path transform="matrix(.71553 0 0 -.71553 69.31 228.2)" d="m9.6429 19.384c0 1.5533-1.2592 2.8125-2.8125 2.8125-1.5533 0-2.8125-1.2592-2.8125-2.8125s1.2592-2.8125 2.8125-2.8125c1.5533 0 2.8125 1.2592 2.8125 2.8125z" color="#000000" fill="#00d8ff"/>
<path transform="matrix(.71553 0 0 -.71553 71.646 223.92)" d="m9.6429 19.384c0 1.5533-1.2592 2.8125-2.8125 2.8125-1.5533 0-2.8125-1.2592-2.8125-2.8125s1.2592-2.8125 2.8125-2.8125c1.5533 0 2.8125 1.2592 2.8125 2.8125z" color="#000000" fill="#00d8ff"/>
<path transform="matrix(.71553 0 0 -.71553 57.178 222.02)" d="m9.6429 19.384c0 1.5533-1.2592 2.8125-2.8125 2.8125-1.5533 0-2.8125-1.2592-2.8125-2.8125s1.2592-2.8125 2.8125-2.8125c1.5533 0 2.8125 1.2592 2.8125 2.8125z" color="#000000" fill="#00d8ff"/>
<path transform="matrix(.71553 0 0 -.71553 62.049 217.57)" d="m9.6429 19.384c0 1.5533-1.2592 2.8125-2.8125 2.8125-1.5533 0-2.8125-1.2592-2.8125-2.8125s1.2592-2.8125 2.8125-2.8125c1.5533 0 2.8125 1.2592 2.8125 2.8125z" color="#000000" fill="#00d8ff"/>
<path d="m65.517 212.06 1.083-6.381" fill-opacity="0" stroke="#00d8ff" stroke-linecap="square" stroke-width=".80497px"/>
<path d="m63.867 212.26-0.99372-2.2684" fill-opacity="0" stroke="#00d8ff" stroke-linecap="square" stroke-width=".80497px"/>
<path d="m62.937 212.91-5.269-5.0512" fill-opacity="0" stroke="#00d8ff" stroke-linecap="square" stroke-width=".80497px"/>
<path d="m59.111 213.55 3.0926 0.71449" fill-opacity="0" stroke="#00d8ff" stroke-linecap="square" stroke-width=".80497px"/>
<path d="m62.182 215.47-7.594 1.4683" fill-opacity="0" stroke="#00d8ff" stroke-linecap="square" stroke-width=".80497px"/>
<path d="m67.927 214.74 4.2618-0.27298" fill-opacity="0" stroke="#00d8ff" stroke-linecap="square" stroke-width=".80497px"/>
<path d="m74.68 210.84-6.9765 2.9539" fill-opacity="0" stroke="#00d8ff" stroke-linecap="square" stroke-width=".80497px"/>
<path transform="matrix(.71553 0 0 -.71553 65.611 222.01)" d="m9.6429 19.384c0 1.5533-1.2592 2.8125-2.8125 2.8125-1.5533 0-2.8125-1.2592-2.8125-2.8125s1.2592-2.8125 2.8125-2.8125c1.5533 0 2.8125 1.2592 2.8125 2.8125z" color="#000000" fill="#00d8ff"/>
<path d="m69.235 209.71-2.3821 2.9528" fill="none" stroke="#00d8ff" stroke-linecap="square" stroke-width=".80497px"/>
<path transform="matrix(.71553 0 0 -.71553 52.428 233.84)" d="m9.6429 19.384c0 1.5533-1.2592 2.8125-2.8125 2.8125-1.5533 0-2.8125-1.2592-2.8125-2.8125s1.2592-2.8125 2.8125-2.8125c1.5533 0 2.8125 1.2592 2.8125 2.8125z" color="#000000" fill="#00d8ff"/>
<path transform="matrix(.71553 0 0 -.71553 53.629 239.32)" d="m9.6429 19.384c0 1.5533-1.2592 2.8125-2.8125 2.8125-1.5533 0-2.8125-1.2592-2.8125-2.8125s1.2592-2.8125 2.8125-2.8125c1.5533 0 2.8125 1.2592 2.8125 2.8125z" color="#000000" fill="#00d8ff"/>
<path transform="matrix(.71553 0 0 -.71553 59.214 237.22)" d="m9.6429 19.384c0 1.5533-1.2592 2.8125-2.8125 2.8125-1.5533 0-2.8125-1.2592-2.8125-2.8125s1.2592-2.8125 2.8125-2.8125c1.5533 0 2.8125 1.2592 2.8125 2.8125z" color="#000000" fill="#00d8ff"/>
<path transform="matrix(.71553 0 0 -.71553 71.872 232.78)" d="m9.6429 19.384c0 1.5533-1.2592 2.8125-2.8125 2.8125-1.5533 0-2.8125-1.2592-2.8125-2.8125s1.2592-2.8125 2.8125-2.8125c1.5533 0 2.8125 1.2592 2.8125 2.8125z" color="#000000" fill="#00d8ff"/>
<path d="m62.604 216.51-3.6052 2.3609" fill="none" stroke="#00d8ff" stroke-linecap="square" stroke-width=".80497px"/>
<path d="m63.504 217.39-3.9282 6.346" fill="none" stroke="#00d8ff" stroke-linecap="square" stroke-width=".80497px"/>
<path d="m64.713 217.81-0.39099 3.5399" fill="none" stroke="#00d8ff" stroke-linecap="square" stroke-width=".80497px"/>
<path d="m67.779 215.86 7.0751 2.408" fill="none" stroke="#00d8ff" stroke-linecap="square" stroke-width=".80497px"/>
<path transform="matrix(.71553 0 0 -.71553 64.379 239.85)" d="m9.6429 19.384c0 1.5533-1.2592 2.8125-2.8125 2.8125-1.5533 0-2.8125-1.2592-2.8125-2.8125s1.2592-2.8125 2.8125-2.8125c1.5533 0 2.8125 1.2592 2.8125 2.8125z" color="#000000" fill="#00d8ff"/>
<path transform="matrix(.71553 0 0 -.71553 66.119 234.38)" d="m9.6429 19.384c0 1.5533-1.2592 2.8125-2.8125 2.8125-1.5533 0-2.8125-1.2592-2.8125-2.8125s1.2592-2.8125 2.8125-2.8125c1.5533 0 2.8125 1.2592 2.8125 2.8125z" color="#000000" fill="#00d8ff"/>
<path d="m67.15 216.9 2.3865 2.2325" fill-opacity="0" stroke="#00d8ff" stroke-linecap="square" stroke-width=".805"/>
<path d="m66.069 217.63 2.4772 6.4702" fill-opacity="0" stroke="#00d8ff" stroke-linecap="square" stroke-width=".805"/>
</g>
<g transform="matrix(1.4034 0 0 1.4034 -67.294 -277.8)">
<path transform="translate(-137.71 48.967)" d="m219.11 166.09c0 9.0309-7.321 16.352-16.352 16.352-9.0309 0-16.352-7.321-16.352-16.352 0-9.0309 7.321-16.352 16.352-16.352 9.0309 0 16.352 7.321 16.352 16.352z" color="#000000" fill="#222" stroke="#00d8ff" stroke-linecap="square" stroke-width="1.5"/>
<path transform="matrix(.71553 0 0 -.71553 52.263 226.97)" d="m9.6429 19.384c0 1.5533-1.2592 2.8125-2.8125 2.8125-1.5533 0-2.8125-1.2592-2.8125-2.8125s1.2592-2.8125 2.8125-2.8125c1.5533 0 2.8125 1.2592 2.8125 2.8125z" color="#000000" fill="#00d8ff"/>
<path transform="matrix(.71553 0 0 -.71553 51.328 220.34)" d="m9.6429 19.384c0 1.5533-1.2592 2.8125-2.8125 2.8125-1.5533 0-2.8125-1.2592-2.8125-2.8125s1.2592-2.8125 2.8125-2.8125c1.5533 0 2.8125 1.2592 2.8125 2.8125z" color="#000000" fill="#00d8ff"/>
<path transform="matrix(1.0315 0 0 -1.0315 57.986 234.92)" d="m9.6429 19.384c0 1.5533-1.2592 2.8125-2.8125 2.8125-1.5533 0-2.8125-1.2592-2.8125-2.8125s1.2592-2.8125 2.8125-2.8125c1.5533 0 2.8125 1.2592 2.8125 2.8125z" color="#000000" fill="#00d8ff" stroke="#00d8ff" stroke-width=".39975"/>
<path transform="matrix(.71553 0 0 -.71553 47.725 231.19)" d="m9.6429 19.384c0 1.5533-1.2592 2.8125-2.8125 2.8125-1.5533 0-2.8125-1.2592-2.8125-2.8125s1.2592-2.8125 2.8125-2.8125c1.5533 0 2.8125 1.2592 2.8125 2.8125z" color="#000000" fill="#00d8ff"/>
<path transform="matrix(.71553 0 0 -.71553 69.31 228.2)" d="m9.6429 19.384c0 1.5533-1.2592 2.8125-2.8125 2.8125-1.5533 0-2.8125-1.2592-2.8125-2.8125s1.2592-2.8125 2.8125-2.8125c1.5533 0 2.8125 1.2592 2.8125 2.8125z" color="#000000" fill="#00d8ff"/>
<path transform="matrix(.71553 0 0 -.71553 71.646 223.92)" d="m9.6429 19.384c0 1.5533-1.2592 2.8125-2.8125 2.8125-1.5533 0-2.8125-1.2592-2.8125-2.8125s1.2592-2.8125 2.8125-2.8125c1.5533 0 2.8125 1.2592 2.8125 2.8125z" color="#000000" fill="#00d8ff"/>
<path transform="matrix(.71553 0 0 -.71553 57.178 222.02)" d="m9.6429 19.384c0 1.5533-1.2592 2.8125-2.8125 2.8125-1.5533 0-2.8125-1.2592-2.8125-2.8125s1.2592-2.8125 2.8125-2.8125c1.5533 0 2.8125 1.2592 2.8125 2.8125z" color="#000000" fill="#00d8ff"/>
<path transform="matrix(.71553 0 0 -.71553 62.049 217.57)" d="m9.6429 19.384c0 1.5533-1.2592 2.8125-2.8125 2.8125-1.5533 0-2.8125-1.2592-2.8125-2.8125s1.2592-2.8125 2.8125-2.8125c1.5533 0 2.8125 1.2592 2.8125 2.8125z" color="#000000" fill="#00d8ff"/>
<path d="m65.517 212.06 1.083-6.381" fill-opacity="0" stroke="#00d8ff" stroke-linecap="square" stroke-width=".80497px"/>
<path d="m63.867 212.26-0.99372-2.2684" fill-opacity="0" stroke="#00d8ff" stroke-linecap="square" stroke-width=".80497px"/>
<path d="m62.937 212.91-5.269-5.0512" fill-opacity="0" stroke="#00d8ff" stroke-linecap="square" stroke-width=".80497px"/>
<path d="m59.111 213.55 3.0926 0.71449" fill-opacity="0" stroke="#00d8ff" stroke-linecap="square" stroke-width=".80497px"/>
<path d="m62.182 215.47-7.594 1.4683" fill-opacity="0" stroke="#00d8ff" stroke-linecap="square" stroke-width=".80497px"/>
<path d="m67.927 214.74 4.2618-0.27298" fill-opacity="0" stroke="#00d8ff" stroke-linecap="square" stroke-width=".80497px"/>
<path d="m74.68 210.84-6.9765 2.9539" fill-opacity="0" stroke="#00d8ff" stroke-linecap="square" stroke-width=".80497px"/>
<path transform="matrix(.71553 0 0 -.71553 65.611 222.01)" d="m9.6429 19.384c0 1.5533-1.2592 2.8125-2.8125 2.8125-1.5533 0-2.8125-1.2592-2.8125-2.8125s1.2592-2.8125 2.8125-2.8125c1.5533 0 2.8125 1.2592 2.8125 2.8125z" color="#000000" fill="#00d8ff"/>
<path d="m69.235 209.71-2.3821 2.9528" fill="none" stroke="#00d8ff" stroke-linecap="square" stroke-width=".80497px"/>
<path transform="matrix(.71553 0 0 -.71553 52.428 233.84)" d="m9.6429 19.384c0 1.5533-1.2592 2.8125-2.8125 2.8125-1.5533 0-2.8125-1.2592-2.8125-2.8125s1.2592-2.8125 2.8125-2.8125c1.5533 0 2.8125 1.2592 2.8125 2.8125z" color="#000000" fill="#00d8ff"/>
<path transform="matrix(.71553 0 0 -.71553 53.629 239.32)" d="m9.6429 19.384c0 1.5533-1.2592 2.8125-2.8125 2.8125-1.5533 0-2.8125-1.2592-2.8125-2.8125s1.2592-2.8125 2.8125-2.8125c1.5533 0 2.8125 1.2592 2.8125 2.8125z" color="#000000" fill="#00d8ff"/>
<path transform="matrix(.71553 0 0 -.71553 59.214 237.22)" d="m9.6429 19.384c0 1.5533-1.2592 2.8125-2.8125 2.8125-1.5533 0-2.8125-1.2592-2.8125-2.8125s1.2592-2.8125 2.8125-2.8125c1.5533 0 2.8125 1.2592 2.8125 2.8125z" color="#000000" fill="#00d8ff"/>
<path transform="matrix(.71553 0 0 -.71553 71.872 232.78)" d="m9.6429 19.384c0 1.5533-1.2592 2.8125-2.8125 2.8125-1.5533 0-2.8125-1.2592-2.8125-2.8125s1.2592-2.8125 2.8125-2.8125c1.5533 0 2.8125 1.2592 2.8125 2.8125z" color="#000000" fill="#00d8ff"/>
<path d="m62.604 216.51-3.6052 2.3609" fill="none" stroke="#00d8ff" stroke-linecap="square" stroke-width=".80497px"/>
<path d="m63.504 217.39-3.9282 6.346" fill="none" stroke="#00d8ff" stroke-linecap="square" stroke-width=".80497px"/>
<path d="m64.713 217.81-0.39099 3.5399" fill="none" stroke="#00d8ff" stroke-linecap="square" stroke-width=".80497px"/>
<path d="m67.779 215.86 7.0751 2.408" fill="none" stroke="#00d8ff" stroke-linecap="square" stroke-width=".80497px"/>
<path transform="matrix(.71553 0 0 -.71553 64.379 239.85)" d="m9.6429 19.384c0 1.5533-1.2592 2.8125-2.8125 2.8125-1.5533 0-2.8125-1.2592-2.8125-2.8125s1.2592-2.8125 2.8125-2.8125c1.5533 0 2.8125 1.2592 2.8125 2.8125z" color="#000000" fill="#00d8ff"/>
<path transform="matrix(.71553 0 0 -.71553 66.119 234.38)" d="m9.6429 19.384c0 1.5533-1.2592 2.8125-2.8125 2.8125-1.5533 0-2.8125-1.2592-2.8125-2.8125s1.2592-2.8125 2.8125-2.8125c1.5533 0 2.8125 1.2592 2.8125 2.8125z" color="#000000" fill="#00d8ff"/>
<path d="m67.15 216.9 2.3865 2.2325" fill-opacity="0" stroke="#00d8ff" stroke-linecap="square" stroke-width=".805"/>
<path d="m66.069 217.63 2.4772 6.4702" fill-opacity="0" stroke="#00d8ff" stroke-linecap="square" stroke-width=".805"/>
</g>
</g>
</svg>
